<svg width="30" height="30" viewBox="0 0 30 30" fill="none" xmlns="http://www.w3.org/2000/svg">
<g clip-path="url(#clip0_24_3733)">
<path d="M18.3041 15.0001L29.5207 3.78302C29.8293 3.47424 29.9995 3.06229 30 2.62302C30 2.18351 29.8298 1.77107 29.5207 1.46278L28.5378 0.480092C28.2288 0.17058 27.8168 0.00106812 27.3771 0.00106812C26.938 0.00106812 26.5261 0.17058 26.2171 0.480092L15.0005 11.6964L3.78341 0.480092C3.47488 0.17058 3.06268 0.00106812 2.62317 0.00106812C2.18415 0.00106812 1.77195 0.17058 1.46341 0.480092L0.48 1.46278C-0.16 2.10278 -0.16 3.14375 0.48 3.78302L11.6968 15.0001L0.48 26.2167C0.171219 26.5259 0.00121951 26.9379 0.00121951 27.3772C0.00121951 27.8164 0.171219 28.2284 0.48 28.5374L1.46317 29.5201C1.77171 29.8294 2.18415 29.9991 2.62293 29.9991C3.06244 29.9991 3.47463 29.8294 3.78317 29.5201L15.0002 18.3035L26.2168 29.5201C26.5259 29.8294 26.9378 29.9991 27.3768 29.9991H27.3773C27.8166 29.9991 28.2285 29.8294 28.5376 29.5201L29.5205 28.5374C29.829 28.2286 29.9993 27.8164 29.9993 27.3772C29.9993 26.9379 29.829 26.5259 29.5205 26.2169L18.3041 15.0001Z" fill="#DADADA"/>
</g>
<defs>
<clipPath id="clip0_24_3733">
<rect width="30" height="30" fill="white"/>
</clipPath>
</defs>
</svg>
