<svg width="19" height="19" viewBox="0 0 19 19" fill="none" xmlns="http://www.w3.org/2000/svg">
<g clip-path="url(#clip0_2_590)">
<path d="M0.332731 9.08606L4.67492 10.7067L6.35562 16.1118C6.46316 16.458 6.88647 16.5859 7.16745 16.3562L9.58786 14.383C9.84157 14.1763 10.2029 14.166 10.4681 14.3585L14.8336 17.528C15.1342 17.7464 15.5601 17.5817 15.6354 17.2185L18.8334 1.83557C18.9157 1.43882 18.5259 1.10785 18.1481 1.25396L0.327643 8.12856C-0.11213 8.29816 -0.108298 8.92079 0.332731 9.08606ZM6.08476 9.84399L14.571 4.61729C14.7235 4.52363 14.8804 4.72986 14.7495 4.85134L7.74585 11.3616C7.49968 11.5907 7.34088 11.8974 7.2959 12.2302L7.05733 13.9982C7.02573 14.2343 6.69413 14.2577 6.62899 14.0293L5.71144 10.8053C5.60635 10.4375 5.7595 10.0447 6.08476 9.84399Z" fill="#D5D5D5"/>
</g>
<defs>
<clipPath id="clip0_2_590">
<rect width="18.8447" height="18.8447" fill="white"/>
</clipPath>
</defs>
</svg>
