<svg width="17" height="17" viewBox="0 0 17 17" fill="none" xmlns="http://www.w3.org/2000/svg">
<g clip-path="url(#clip0_2_585)">
<path d="M8.50274 0H8.49849C3.8118 0 0.000610352 3.81225 0.000610352 8.5C0.000610352 10.3594 0.59986 12.0828 1.6188 13.4821L0.559485 16.6398L3.82667 15.5954C5.17074 16.4858 6.77405 17 8.50274 17C13.1894 17 17.0006 13.1867 17.0006 8.5C17.0006 3.81331 13.1894 0 8.50274 0ZM13.4487 12.0031C13.2436 12.5821 12.4297 13.0624 11.7805 13.2026C11.3364 13.2972 10.7563 13.3726 8.80342 12.563C6.30549 11.5281 4.69686 8.98981 4.57149 8.82512C4.45142 8.66044 3.56211 7.48106 3.56211 6.26131C3.56211 5.04156 4.18155 4.44763 4.43124 4.19263C4.6363 3.98331 4.97524 3.88769 5.30036 3.88769C5.40555 3.88769 5.50011 3.893 5.58511 3.89725C5.8348 3.90788 5.96017 3.92275 6.12486 4.31694C6.32992 4.811 6.8293 6.03075 6.8888 6.15613C6.94936 6.2815 7.00992 6.4515 6.92492 6.61619C6.84524 6.78619 6.77511 6.86162 6.64974 7.00612C6.52436 7.15062 6.40536 7.26113 6.27999 7.41625C6.16524 7.55119 6.03561 7.69569 6.18011 7.94537C6.32461 8.18975 6.82399 9.00469 7.55924 9.65919C8.50805 10.5039 9.2773 10.7738 9.55249 10.8885C9.75755 10.9735 10.0019 10.9533 10.1517 10.7939C10.3419 10.5889 10.5767 10.2489 10.8158 9.91419C10.9858 9.67406 11.2004 9.64431 11.4257 9.72931C11.6552 9.809 12.8696 10.4093 13.1193 10.5336C13.369 10.659 13.5337 10.7185 13.5942 10.8237C13.6537 10.9289 13.6537 11.4229 13.4487 12.0031Z" fill="#D5D5D5"/>
</g>
<defs>
<clipPath id="clip0_2_585">
<rect width="17" height="17" fill="white"/>
</clipPath>
</defs>
</svg>
