<svg width="17" height="17" viewBox="0 0 17 17" fill="none" xmlns="http://www.w3.org/2000/svg">
<g clip-path="url(#clip0_1_650)">
<path d="M1.59615 5.80945C1.80652 5.9579 2.44065 6.39879 3.49856 7.13189C4.55651 7.86499 5.36697 8.42946 5.92998 8.82533C5.99184 8.86872 6.12325 8.96305 6.32429 9.10844C6.52536 9.25393 6.69243 9.3715 6.82537 9.46118C6.95841 9.55083 7.11925 9.65139 7.30803 9.76272C7.49675 9.87395 7.67465 9.95762 7.84169 10.013C8.00876 10.0688 8.16341 10.0965 8.30568 10.0965H8.31501H8.32437C8.46665 10.0965 8.62136 10.0688 8.78844 10.013C8.95541 9.95762 9.13347 9.87385 9.32203 9.76272C9.51068 9.65126 9.67151 9.55079 9.80455 9.46118C9.93759 9.3715 10.1045 9.25393 10.3057 9.10844C10.5067 8.96292 10.6383 8.86872 10.7001 8.82533C11.2692 8.42946 12.717 7.42407 15.0432 5.80926C15.4948 5.49387 15.8721 5.11331 16.1752 4.66784C16.4785 4.22256 16.63 3.75544 16.63 3.26674C16.63 2.85836 16.483 2.50878 16.1891 2.21803C15.8952 1.92721 15.5472 1.78188 15.1452 1.78188H1.48476C1.00841 1.78188 0.641829 1.94271 0.385078 2.26438C0.128359 2.5861 0 2.98825 0 3.47077C0 3.86053 0.170192 4.28289 0.510414 4.73759C0.850604 5.19233 1.21264 5.54965 1.59615 5.80945Z" fill="white"/>
<path d="M15.7019 6.80233C13.6729 8.17567 12.1321 9.24298 11.0805 10.004C10.7279 10.2638 10.4418 10.4665 10.2221 10.6118C10.0024 10.7572 9.71026 10.9057 9.34517 11.0572C8.98021 11.2089 8.64009 11.2846 8.3245 11.2846H8.31504H8.30572C7.9902 11.2846 7.64988 11.2089 7.28492 11.0572C6.91996 10.9057 6.62759 10.7572 6.40795 10.6118C6.18839 10.4665 5.90222 10.2638 5.54961 10.004C4.71435 9.39159 3.17697 8.32421 0.93739 6.80233C0.584654 6.56739 0.272223 6.29809 0 5.99499V13.3632C0 13.7718 0.145327 14.1212 0.436142 14.412C0.726893 14.7028 1.07651 14.8482 1.48486 14.8482H15.1453C15.5535 14.8482 15.9031 14.7028 16.1939 14.412C16.4848 14.1211 16.6301 13.7718 16.6301 13.3632V5.99499C16.364 6.29182 16.0547 6.56111 15.7019 6.80233Z" fill="white"/>
</g>
<defs>
<clipPath id="clip0_1_650">
<rect width="16.63" height="16.63" fill="white"/>
</clipPath>
</defs>
</svg>
