<svg width="17" height="17" viewBox="0 0 17 17" fill="none" xmlns="http://www.w3.org/2000/svg">
<g clip-path="url(#clip0_1_583)">
<path d="M8.46897 0.677521C4.17281 0.677521 0.67749 4.17251 0.67749 8.469C0.67749 12.7655 4.17281 16.2605 8.46897 16.2605C12.7651 16.2605 16.2604 12.7655 16.2604 8.469C16.2604 4.17251 12.7651 0.677521 8.46897 0.677521ZM12.7831 4.29514L9.36465 7.99812C9.43917 8.13938 9.48525 8.29826 9.48525 8.469C9.48525 8.72645 9.38633 8.95918 9.22847 9.13839L10.4588 11.3535C10.55 11.5168 10.4907 11.7231 10.3274 11.8139C10.2752 11.843 10.2187 11.8566 10.1631 11.8566C10.0439 11.8566 9.92868 11.7936 9.86669 11.6821L8.63665 9.46834C8.58177 9.47748 8.52656 9.48528 8.46897 9.48528C7.90764 9.48528 7.45269 9.03032 7.45269 8.469C7.45269 7.90767 7.90764 7.45272 8.46897 7.45272C8.61125 7.45272 8.74675 7.48253 8.86972 7.53537L12.2851 3.8351C12.4121 3.69824 12.6262 3.6891 12.7638 3.81613C12.9013 3.94317 12.9098 4.15726 12.7831 4.29514Z" fill="white"/>
</g>
<defs>
<clipPath id="clip0_1_583">
<rect width="16.938" height="16.938" fill="white"/>
</clipPath>
</defs>
</svg>
