<svg width="19" height="19" viewBox="0 0 19 19" fill="none" xmlns="http://www.w3.org/2000/svg">
<g clip-path="url(#clip0_1_572)">
<path d="M0.332731 9.08582L4.67492 10.7065L6.35562 16.1116C6.46316 16.4577 6.88647 16.5857 7.16745 16.356L9.58786 14.3828C9.84157 14.1761 10.2029 14.1658 10.4681 14.3582L14.8336 17.5277C15.1342 17.7462 15.5601 17.5815 15.6354 17.2183L18.8334 1.83533C18.9157 1.43859 18.5259 1.10761 18.1481 1.25372L0.327643 8.12832C-0.11213 8.29792 -0.108298 8.92055 0.332731 9.08582ZM6.08476 9.84375L14.571 4.61706C14.7235 4.5234 14.8804 4.72962 14.7495 4.85111L7.74585 11.3613C7.49968 11.5905 7.34088 11.8971 7.2959 12.23L7.05733 13.998C7.02573 14.2341 6.69413 14.2575 6.62899 14.029L5.71144 10.805C5.60635 10.4373 5.7595 10.0445 6.08476 9.84375Z" fill="white"/>
</g>
<defs>
<clipPath id="clip0_1_572">
<rect width="18.8447" height="18.8447" fill="white"/>
</clipPath>
</defs>
</svg>
