<svg width="19" height="19" viewBox="0 0 19 19" fill="none" xmlns="http://www.w3.org/2000/svg">
<g clip-path="url(#clip0_1_576)">
<path d="M18.8452 3.57931C18.1444 3.88672 17.3977 4.09048 16.6191 4.18941C17.42 3.71123 18.0313 2.9598 18.3187 2.05407C17.572 2.49928 16.7475 2.81375 15.8689 2.98924C15.1599 2.23428 14.1493 1.76669 13.0469 1.76669C10.908 1.76669 9.18609 3.50276 9.18609 5.63103C9.18609 5.93726 9.212 6.2317 9.2756 6.51202C6.06376 6.35537 3.22175 4.816 1.31255 2.47101C0.979234 3.04931 0.78372 3.71123 0.78372 4.42379C0.78372 5.76176 1.47273 6.9478 2.49976 7.63445C1.87907 7.62268 1.27015 7.44247 0.754276 7.15863C0.754276 7.1704 0.754276 7.18572 0.754276 7.20103C0.754276 9.07843 2.09343 10.6378 3.84951 10.9971C3.53504 11.083 3.19231 11.1243 2.83661 11.1243C2.58928 11.1243 2.33958 11.1101 2.1052 11.0583C2.60577 12.5883 4.02618 13.713 5.71514 13.7496C4.40072 14.7778 2.73179 15.3973 0.925055 15.3973C0.608229 15.3973 0.304359 15.3832 0.000488281 15.3443C1.71182 16.4479 3.73998 17.078 5.92714 17.078C13.0363 17.078 16.923 11.189 16.923 6.08448C16.923 5.9137 16.9171 5.74881 16.9089 5.5851C17.6756 5.04095 18.3199 4.36137 18.8452 3.57931Z" fill="white"/>
</g>
<defs>
<clipPath id="clip0_1_576">
<rect width="18.8447" height="18.8447" fill="white"/>
</clipPath>
</defs>
</svg>
