<svg width="32" height="32" viewBox="0 0 32 32" fill="none" xmlns="http://www.w3.org/2000/svg">
<path d="M16.7744 14.4379L16.7743 6.50637C16.7742 6.28812 16.6887 6.08228 16.5336 5.9268C16.3782 5.77141 16.1722 5.68578 15.9539 5.68604L15.259 5.68613C15.0403 5.68596 14.8347 5.77167 14.6793 5.92715C14.524 6.08237 14.4383 6.28795 14.4385 6.50663L14.4384 14.4379L6.50702 14.4382C6.28851 14.4378 6.08284 14.5236 5.92745 14.679C5.77223 14.8342 5.68643 15.0399 5.68678 15.2584L5.68652 15.9535C5.68652 16.4061 6.05456 16.7741 6.50685 16.7739H14.4384L14.4383 24.7054C14.4385 24.9239 14.524 25.1296 14.6793 25.2849C14.8346 25.4402 15.0404 25.5258 15.2588 25.5259L15.9539 25.5257C16.1723 25.5259 16.3781 25.4401 16.5333 25.285C16.6886 25.1296 16.7744 24.9239 16.7741 24.7054L16.7743 16.7739H24.7056C24.9242 16.774 25.1299 16.6884 25.2851 16.5332C25.4404 16.3779 25.5262 16.172 25.5261 15.9534L25.5262 15.2585C25.5261 15.0402 25.4406 14.8343 25.2853 14.679C25.1299 14.5237 24.9241 14.4383 24.7058 14.4381L16.7744 14.4379Z" fill="black"/>
</svg>
