<svg width="19" height="19" viewBox="0 0 19 19" fill="none" xmlns="http://www.w3.org/2000/svg">
<g clip-path="url(#clip0_287_356)">
<path d="M0.332609 9.08581L4.6748 10.7065L6.35549 16.1116C6.46303 16.4577 6.88635 16.5857 7.16732 16.356L9.58773 14.3828C9.84145 14.1761 10.2028 14.1658 10.468 14.3582L14.8335 17.5277C15.1341 17.7462 15.5599 17.5815 15.6353 17.2183L18.8333 1.83532C18.9156 1.43858 18.5258 1.1076 18.148 1.25371L0.32752 8.12831C-0.112252 8.29792 -0.10842 8.92055 0.332609 9.08581ZM6.08463 9.84375L14.5709 4.61705C14.7234 4.52339 14.8803 4.72961 14.7494 4.8511L7.74573 11.3613C7.49956 11.5905 7.34076 11.8971 7.29578 12.23L7.05721 13.998C7.02561 14.2341 6.69401 14.2575 6.62887 14.029L5.71132 10.805C5.60623 10.4373 5.75937 10.0445 6.08463 9.84375Z" fill="#928A8A"/>
</g>
<defs>
<clipPath id="clip0_287_356">
<rect width="18.8447" height="18.8447" fill="white"/>
</clipPath>
</defs>
</svg>
