<svg width="19" height="19" viewBox="0 0 19 19" fill="none" xmlns="http://www.w3.org/2000/svg">
<g clip-path="url(#clip0_287_360)">
<path d="M18.8452 3.57922C18.1444 3.88663 17.3977 4.09039 16.6191 4.18932C17.42 3.71114 18.0313 2.95971 18.3187 2.05398C17.572 2.49919 16.7475 2.81366 15.8689 2.98915C15.1599 2.23419 14.1493 1.7666 13.0469 1.7666C10.908 1.7666 9.18609 3.50267 9.18609 5.63094C9.18609 5.93717 9.212 6.23161 9.2756 6.51193C6.06376 6.35528 3.22175 4.81591 1.31255 2.47092C0.979234 3.04922 0.78372 3.71114 0.78372 4.4237C0.78372 5.76167 1.47273 6.94771 2.49976 7.63436C1.87907 7.62259 1.27015 7.44238 0.754276 7.15854C0.754276 7.17031 0.754276 7.18563 0.754276 7.20094C0.754276 9.07834 2.09343 10.6377 3.84951 10.997C3.53504 11.0829 3.19231 11.1242 2.83661 11.1242C2.58928 11.1242 2.33958 11.11 2.1052 11.0582C2.60577 12.5882 4.02618 13.713 5.71514 13.7495C4.40072 14.7777 2.73179 15.3972 0.925055 15.3972C0.608229 15.3972 0.304359 15.3831 0.000488281 15.3442C1.71182 16.4478 3.73998 17.0779 5.92714 17.0779C13.0363 17.0779 16.923 11.1889 16.923 6.08439C16.923 5.91361 16.9171 5.74872 16.9089 5.58501C17.6756 5.04087 18.3199 4.36128 18.8452 3.57922Z" fill="#928A8A"/>
</g>
<defs>
<clipPath id="clip0_287_360">
<rect width="18.8447" height="18.8447" fill="white"/>
</clipPath>
</defs>
</svg>
