<svg width="17" height="17" viewBox="0 0 17 17" fill="none" xmlns="http://www.w3.org/2000/svg">
<g clip-path="url(#clip0_287_351)">
<path d="M8.50286 0H8.49861C3.81192 0 0.000732422 3.81225 0.000732422 8.5C0.000732422 10.3594 0.599982 12.0828 1.61892 13.4821L0.559607 16.6398L3.8268 15.5954C5.17086 16.4858 6.77417 17 8.50286 17C13.1895 17 17.0007 13.1867 17.0007 8.5C17.0007 3.81331 13.1895 0 8.50286 0ZM13.4488 12.0031C13.2437 12.5821 12.4299 13.0624 11.7807 13.2026C11.3365 13.2972 10.7564 13.3726 8.80354 12.563C6.30561 11.5281 4.69698 8.98981 4.57161 8.82512C4.45154 8.66044 3.56223 7.48106 3.56223 6.26131C3.56223 5.04156 4.18167 4.44763 4.43136 4.19263C4.63642 3.98331 4.97536 3.88769 5.30048 3.88769C5.40567 3.88769 5.50023 3.893 5.58523 3.89725C5.83492 3.90788 5.96029 3.92275 6.12498 4.31694C6.33004 4.811 6.82942 6.03075 6.88892 6.15613C6.94948 6.2815 7.01005 6.4515 6.92505 6.61619C6.84536 6.78619 6.77523 6.86162 6.64986 7.00612C6.52448 7.15062 6.40548 7.26113 6.28011 7.41625C6.16536 7.55119 6.03573 7.69569 6.18023 7.94537C6.32473 8.18975 6.82411 9.00469 7.55936 9.65919C8.50817 10.5039 9.27742 10.7738 9.55261 10.8885C9.75767 10.9735 10.002 10.9533 10.1519 10.7939C10.342 10.5889 10.5769 10.2489 10.8159 9.91419C10.9859 9.67406 11.2005 9.64431 11.4258 9.72931C11.6553 9.809 12.8697 10.4093 13.1194 10.5336C13.3691 10.659 13.5338 10.7185 13.5944 10.8237C13.6539 10.9289 13.6539 11.4229 13.4488 12.0031Z" fill="#928A8A"/>
</g>
<defs>
<clipPath id="clip0_287_351">
<rect width="17" height="17" fill="white"/>
</clipPath>
</defs>
</svg>
